<?xml version="1.0" encoding="utf-8"?>
<!-- Generator: Adobe Illustrator 23.0.1, SVG Export Plug-In . SVG Version: 6.00 Build 0)  -->
<svg version="1.1" id="Layer_1" xmlns="http://www.w3.org/2000/svg" xmlns:xlink="http://www.w3.org/1999/xlink" x="0px" y="0px"
	 viewBox="0 0 1125 2436" style="enable-background:new 0 0 1125 2436;" xml:space="preserve">
<style type="text/css">
	.st0{fill:none;stroke:#000000;stroke-width:3;stroke-miterlimit:10;}
	.st1{fill:none;stroke:#000000;stroke-width:2;stroke-miterlimit:10;}
	.st2{fill:none;stroke:#000000;stroke-miterlimit:10;}
</style>
<g>
	<path class="st0" d="M458.5,109.17v316.77c0,7.08,13.16,10.55,20.58,5.43L672.33,297.9c24.57-16.98,24.57-43.68,0-60.65
		L479.08,103.78C471.66,98.62,458.5,102.09,458.5,109.17z"/>
	<path class="st1" d="M839,109h-90.7c-47.46,0-73.62,34.94-43.63,58.28l105.61,82.14c16.91,13.13,16.91,31.99,0,45.16l-105.61,82.14
		C674.68,400.06,700.84,435,748.3,435H887"/>
	<path class="st2" d="M888.5,435V283.73c0-39.39,60.04-50.32,77-14.01l0,0c16.96,36.31,77,25.38,77-14.01V105"/>
	<path class="st1" d="M356,435V275.87c0-6.82-2.04-13.37-5.77-18.5l-83.49-114.66C253.45,124.44,264.3,96,284.58,96h176.01
		l53.01,31.61"/>
	<path class="st2" d="M272.19,434.18l-74.85-317.46c-4.04-17.11-20.75-16.89-24.57,0.26l-72.07,322.06"/>
</g>
</svg>
