<?xml version="1.0" encoding="utf-8"?>
<!-- Generator: Adobe Illustrator 23.0.1, SVG Export Plug-In . SVG Version: 6.00 Build 0)  -->
<svg version="1.1" id="Layer_1" xmlns="http://www.w3.org/2000/svg" xmlns:xlink="http://www.w3.org/1999/xlink" x="0px" y="0px"
	 viewBox="0 0 400 100" style="enable-background:new 0 0 400 100;" xml:space="preserve">
<style type="text/css">
	.st0{fill:none;stroke:#000000;stroke-width:3;stroke-miterlimit:10;}
	.st1{fill:none;stroke:#000000;stroke-width:2;stroke-miterlimit:10;}
	.st2{fill:none;stroke:#000000;stroke-miterlimit:10;}
</style>
<path class="st0" d="M173.5,15.02v72.96c0,1.63,3.03,2.43,4.74,1.25l44.51-30.74c5.66-3.91,5.66-10.06,0-13.97l-44.51-30.74
	C176.53,12.59,173.5,13.39,173.5,15.02z"/>
<path class="st1" d="M261.11,15h-20.94c-10.92,0-16.94,8.04-10.04,13.41l24.3,18.9c3.89,3.02,3.89,7.36,0,10.39l-24.3,18.9
	c-6.9,5.37-0.88,13.41,10.04,13.41H272"/>
<path class="st2" d="M272.5,90V55.23c0-9.08,13.84-11.6,17.75-3.23l0,0c3.91,8.37,17.75,5.85,17.75-3.23V14"/>
<path class="st1" d="M149.91,90V53.43c0-1.57-0.47-3.08-1.33-4.26l-19.23-26.41c-3.06-4.21-0.56-10.76,4.11-10.76H174l12.21,7.28"/>
<path class="st2" d="M130.5,89.88l-17.24-73.12c-0.93-3.94-4.78-3.89-5.66,0.06L91,91"/>
</svg>
